HIERARCHY
ROOT Hips
{
 OFFSET 0.000000 0.000000 0.000000
 CHANNELS 6 Xposition Yposition Zposition Yrotation Xrotation Zrotation
 JOINT Chest
 {
  OFFSET 0.000000 14.634200 -0.016200
  CHANNELS 3 Yrotation Xrotation Zrotation
  JOINT Chest2
  {
   OFFSET 0.000000 8.932900 0.033000
   CHANNELS 3 Yrotation Xrotation Zrotation
   JOINT Chest3
   {
    OFFSET 0.000000 8.892300 0.000000
    CHANNELS 3 Yrotation Xrotation Zrotation
    JOINT Chest4
    {
     OFFSET 0.000000 8.883200 0.000000
     CHANNELS 3 Yrotation Xrotation Zrotation
     JOINT Neck
     {
      OFFSET 0.000000 13.173600 0.000000
      CHANNELS 3 Yrotation Xrotation Zrotation
      JOINT Head
      {
       OFFSET 0.000000 8.324600 0.069800
       CHANNELS 3 Yrotation Xrotation Zrotation
       End Site
       {
        OFFSET 0.000000 15.692400 0.036900
       }
      }
     }
     JOINT RightCollar
     {
      OFFSET -2.619200 8.772200 0.000000
      CHANNELS 3 Yrotation Xrotation Zrotation
      JOINT RightShoulder
      {
       OFFSET -12.922000 0.000000 0.000000
       CHANNELS 3 Yrotation Xrotation Zrotation
       JOINT RightElbow
       {
        OFFSET 0.000000 -27.880900 0.000000
        CHANNELS 3 Yrotation Xrotation Zrotation
        JOINT RightWrist
        {
         OFFSET 0.000000 -22.758700 0.008200
         CHANNELS 3 Yrotation Xrotation Zrotation
         End Site
         {
          OFFSET 0.000000 -16.965000 0.000000
         }
        }
       }
      }
     }
     JOINT LeftCollar
     {
      OFFSET 2.619200 8.772200 0.000000
      CHANNELS 3 Yrotation Xrotation Zrotation
      JOINT LeftShoulder
      {
       OFFSET 12.922000 0.000000 0.000000
       CHANNELS 3 Yrotation Xrotation Zrotation
       JOINT LeftElbow
       {
        OFFSET 0.000000 -27.880900 0.000000
        CHANNELS 3 Yrotation Xrotation Zrotation
        JOINT LeftWrist
        {
         OFFSET 0.000000 -22.758700 0.008200
         CHANNELS 3 Yrotation Xrotation Zrotation
         End Site
         {
          OFFSET 0.000000 -16.965000 0.000000
         }
        }
       }
      }
     }
    }
   }
  }
 }
 JOINT RightHip
 {
  OFFSET -12.026800 0.080100 0.008100
  CHANNELS 3 Yrotation Xrotation Zrotation
  JOINT RightKnee
  {
   OFFSET 0.000000 -42.600800 -0.000200
   CHANNELS 3 Yrotation Xrotation Zrotation
   JOINT RightAnkle
   {
    OFFSET 0.000000 -38.219300 0.054300
    CHANNELS 3 Yrotation Xrotation Zrotation
    JOINT RightToe
    {
     OFFSET 0.000000 -9.685800 15.804700
     CHANNELS 3 Yrotation Xrotation Zrotation
     End Site
     {
      OFFSET 0.000000 -1.422300 5.761700
     }
    }
   }
  }
 }
 JOINT LeftHip
 {
  OFFSET 12.026800 0.080100 0.008100
  CHANNELS 3 Yrotation Xrotation Zrotation
  JOINT LeftKnee
  {
   OFFSET 0.000000 -42.600800 -0.000200
   CHANNELS 3 Yrotation Xrotation Zrotation
   JOINT LeftAnkle
   {
    OFFSET 0.000000 -38.219300 0.054300
    CHANNELS 3 Yrotation Xrotation Zrotation
    JOINT LeftToe
    {
     OFFSET 0.000000 -9.685800 15.804700
     CHANNELS 3 Yrotation Xrotation Zrotation
     End Site
     {
      OFFSET 0.000000 -1.422300 5.761700
     }
    }
   }
  }
 }
}
MOTION
Frames: 9
Frame Time: 0.008333
0.000000 90.254400 0.000000 0.000000 -5.767877 0.000000 0.000000 11.653817 0.000000 0.000000 -5.885947 0.000000 0.000000 -0.000000 0.000000 0.000000 -0.000000 0.000000 0.000000 12.528835 0.000000 0.000000 0.711642 0.000000 0.000000 -0.000000 0.000000 0.000000 0.000000 -90.000000 0.000000 -2.309062 0.000000 0.000000 2.309062 0.000000 0.000000 -0.000000 0.000000 0.000000 -0.000000 90.000000 0.000000 -2.309062 0.000000 0.000000 2.309062 0.000000 0.000000 8.520406 0.000000 0.000000 1.905762 0.000000 -0.000000 -4.658285 0.000000 0.000000 -0.000000 0.000000 0.000000 8.520406 0.000000 0.000000 1.905762 0.000000 -0.000000 -4.658285 0.000000 0.000000 -0.000000 0.000000
-11.376491 151.971108 23.211400 169.464002 -19.175779 -0.167678 1.505872 21.345798 1.110987 0.173516 2.846321 0.136318 0.286868 4.638956 0.226561 1.271683 18.187945 1.059099 -0.621920 9.863817 0.776478 -0.845323 -15.261774 0.967640 8.458600 -1.063311 -1.894968 19.918124 -32.002188 -14.260161 30.737204 -48.804318 -12.159711 21.860629 8.306210 -35.865914 -11.002229 -1.300256 -1.775334 -5.463957 -33.265069 7.574807 -18.493210 -57.175679 0.423029 -17.327410 16.843303 8.093449 -4.290216 -53.174157 13.246272 -24.812270 76.931882 -38.139466 -7.175133 -18.052466 11.282890 0.061383 -0.162480 0.038391 21.345759 -50.694641 -22.651673 77.381023 76.250325 87.933407 6.525266 -3.810274 -5.067776 0.052691 -3.153184 0.936151
-12.362165 144.752073 24.620406 169.469976 -19.183713 -0.240824 1.528828 21.352426 1.188692 0.173964 2.847196 0.137215 0.287383 4.641125 0.228396 1.268731 18.189283 1.059763 -0.619947 9.858534 0.771978 -0.844337 -15.264702 0.966961 8.459288 -1.065955 -1.901257 19.917805 -32.004845 -14.263864 30.693988 -48.837527 -12.139206 21.905301 8.322304 -35.884986 -11.001352 -1.304887 -1.778394 -5.470618 -33.265184 7.577415 -18.489068 -57.183411 0.427795 -17.318753 16.833033 8.096052 -4.394100 -53.170403 13.367567 -24.846321 76.941062 -38.174947 -7.150717 -18.120790 11.300334 0.028165 -0.099926 0.017252 21.250570 -50.706604 -22.534929 77.344983 76.250533 87.896343 6.559732 -3.751336 -5.046466 0.039684 0.072748 0.024330
-13.179663 138.806467 25.781368 169.481171 -19.184309 -0.281597 1.533377 21.353370 1.227371 0.174439 2.847764 0.137071 0.291214 4.643651 0.224337 1.269631 18.189649 1.063463 -0.619349 9.853311 0.774651 -0.828836 -15.276743 0.963732 8.450804 -1.070229 -1.897576 19.922949 -32.006208 -14.266167 30.672306 -48.851858 -12.124438 21.955325 8.326496 -35.941939 -11.004312 -1.307154 -1.773598 -5.466005 -33.267832 7.574577 -18.481716 -57.191111 0.423652 -17.313258 16.814614 8.086941 -4.458435 -53.174595 13.432338 -24.866927 76.949241 -38.196891 -7.144133 -18.154777 11.306217 0.018107 -0.069071 0.011093 21.194129 -50.715852 -22.473437 77.314483 76.251990 87.863142 6.569128 -3.718515 -5.038188 0.027306 0.043863 0.016739
-13.766474 134.512524 26.620480 169.490306 -19.186050 -0.326074 1.543606 21.353144 1.269349 0.174747 2.848547 0.136959 0.290604 4.644466 0.226316 1.275501 18.194403 1.056258 -0.619098 9.846630 0.782060 -0.828114 -15.280940 0.968165 8.448691 -1.075853 -1.886032 19.915716 -32.010684 -14.268537 30.658277 -48.860344 -12.108391 21.976030 8.332316 -35.964202 -11.012728 -1.310842 -1.764769 -5.466673 -33.268592 7.571981 -18.483799 -57.191524 0.431424 -17.312656 16.811998 8.083413 -4.528519 -53.173949 13.506388 -24.878958 76.954014 -38.211788 -7.140208 -18.198519 11.316594 0.005203 -0.030619 0.003187 21.140393 -50.725463 -22.407904 77.287252 76.256287 87.838042 6.580157 -3.684500 -5.027252 0.011854 0.016047 0.007265
-14.140653 131.800448 27.150353 169.498725 -19.186122 -0.341730 1.542635 21.353281 1.278681 0.176977 2.849709 0.139082 0.289045 4.643929 0.228012 1.274808 18.196045 1.053925 -0.612993 9.841605 0.784836 -0.832307 -15.280652 0.970919 8.449470 -1.075608 -1.881071 19.902439 -32.011560 -14.265643 30.665894 -48.868330 -12.106665 21.982016 8.334716 -35.971522 -11.014387 -1.305380 -1.762253 -5.460004 -33.273122 7.569414 -18.488435 -57.197897 0.432809 -17.304118 16.805727 8.078889 -4.555430 -53.175001 13.528977 -24.902033 76.954891 -38.235467 -7.142264 -18.208203 11.328496 0.002875 -0.020409 0.001762 21.119847 -50.728891 -22.388425 77.280789 76.255985 87.829745 6.574712 -3.677794 -5.019630 0.008886 0.007128 0.005446
-14.346545 130.308993 27.441476 169.497489 -19.188800 -0.348386 1.545676 21.357137 1.282918 0.176794 2.847015 0.139959 0.288491 4.648907 0.223727 1.278166 18.196775 1.055539 -0.606977 9.835663 0.788291 -0.829213 -15.283604 0.973879 8.457625 -1.070232 -1.881374 19.889182 -32.018950 -14.266443 30.650444 -48.881537 -12.092494 22.009112 8.338103 -35.999163 -11.008844 -1.305156 -1.758090 -5.455879 -33.276666 7.564286 -18.472906 -57.215324 0.424321 -17.313735 16.815959 8.055864 -4.565341 -53.172851 13.539898 -24.897506 76.957785 -38.232383 -7.143985 -18.214051 11.334347 0.001035 -0.014115 0.000634 21.112512 -50.728430 -22.375860 77.281518 76.253884 87.822463 6.574444 -3.674639 -5.009078 0.005054 0.001092 0.003098
-14.444250 129.598724 27.580579 169.497601 -19.189830 -0.354014 1.549991 21.359806 1.286351 0.174672 2.850576 0.136780 0.291784 4.647038 0.226379 1.280249 18.198426 1.054705 -0.603981 9.832898 0.790510 -0.829754 -15.290620 0.978641 8.455226 -1.071623 -1.879002 19.883859 -32.019046 -14.267173 30.629592 -48.901729 -12.087029 22.036371 8.348511 -36.012860 -11.003231 -1.304125 -1.757671 -5.454049 -33.284169 7.560001 -18.484928 -57.216190 0.427746 -17.315210 16.819225 8.048818 -4.574278 -53.171406 13.548114 -24.903233 76.954529 -38.238129 -7.139074 -18.214350 11.336622 0.000021 -0.011040 0.000013 21.109199 -50.730562 -22.373968 77.309377 76.257626 87.851694 6.576753 -3.677818 -5.007439 0.002657 -0.001296 0.001628
-14.484844 129.308140 27.637676 169.495612 -19.190410 -0.353903 1.555093 21.361511 1.285796 0.172821 2.850128 0.137878 0.294886 4.648278 0.225240 1.282844 18.199625 1.054547 -0.605864 9.830478 0.793901 -0.827220 -15.293649 0.981790 8.448753 -1.072311 -1.875918 19.883726 -32.017267 -14.268852 30.624028 -48.914095 -12.088243 22.058790 8.349219 -36.028914 -11.003932 -1.304913 -1.757070 -5.458722 -33.285256 7.563140 -18.482760 -57.219873 0.426037 -17.317184 16.824904 8.040595 -4.571598 -53.170706 13.546759 -24.898178 76.951249 -38.232019 -7.137726 -18.212073 11.336033 0.000678 -0.009068 0.000416 21.114555 -50.727276 -22.383407 77.321672 76.257606 87.865096 6.579770 -3.684133 -5.002067 -0.002793 -0.000361 -0.001712
